#!OML:ASF H:\Terrain\Walking\May29\JustinRory\Justin.ASF
:FULLY-SPECIFIED
:DEGREES
1993
root 11.3353 15.8458 12.0864 -307.95 -68.35 319.735 
lowerback 19.9595 -2.24394 -4.33712 
upperback 6.99187 -3.89833 5.92102 
thorax -2.80742 -2.26686 9.78234 
lowerneck 5.22049 -19.3467 -19.9454 
upperneck 6.2053 -29.3273 25.0876 
head 7.93012 -14.6572 8.04632 
rclavicle -7.95139e-14 1.59028e-14 
rhumerus -47.9981 -63.3032 -0.732573 
rradius 33.0064 
rwrist -75.9264 
rhand 0.916645 -0.555597 
rfingers 7.12502 
rthumb 26.4681 -28.7272 
lclavicle -7.95139e-14 1.59028e-14 
lhumerus -50.6461 34.9299 37.9096 
lradius 38.1004 
lwrist -0.27092 
lhand -8.25058 37.8012 
lfingers 7.12502 
lthumb 17.6677 67.0185 
rfemur -11.9711 -3.45745 7.98279 
rtibia 24.52 
rfoot -15.2163 -14.9012 
rtoes -26.858 
lfemur -43.3549 19.1049 -0.248476 
ltibia 73.8209 
lfoot -35.1015 -6.31378 
ltoes -20.4307 
1994
root 11.3218 15.8955 12.1503 -308.791 -68.3205 321.158 
lowerback 19.8317 -2.2626 -4.86429 
upperback 6.50788 -3.97106 5.9085 
thorax -3.21233 -2.25489 10.1106 
lowerneck 5.58951 -19.1644 -20.5732 
upperneck 6.18729 -29.2197 25.4082 
head 7.99603 -14.6449 8.28438 
rclavicle -7.95139e-15 3.49861e-14 
rhumerus -48.1888 -63.2345 -0.922774 
rradius 33.0049 
rwrist -75.6833 
rhand 1.12472 0.0454112 
rfingers 7.12502 
rthumb 26.6672 -28.0961 
lclavicle -7.95139e-15 3.49861e-14 
lhumerus -50.2754 34.1115 39.2365 
lradius 38.8723 
lwrist -1.68267 
lhand -8.81796 36.2629 
lfingers 7.12502 
lthumb 17.1217 65.5285 
rfemur -12.287 -4.16069 7.7377 
rtibia 24.3983 
rfoot -14.3476 -15.7277 
rtoes -27.5559 
lfemur -43.4125 18.4696 -1.08708 
ltibia 72.8691 
lfoot -35.3316 -6.30439 
ltoes -17.6608 
1995
root 11.3128 15.945 12.2125 -308.941 -68.1173 321.752 
lowerback 19.7362 -2.17446 -4.77291 
upperback 6.17575 -3.80786 5.73497 
thorax -3.57898 -2.12674 9.83693 
lowerneck 5.57039 -19.2031 -20.4099 
upperneck 6.3004 -29.3504 25.6188 
head 8.08258 -14.7026 8.29978 
rclavicle -7.15625e-14 6.83819e-14 
rhumerus -49.1402 -62.8561 -0.897907 
rradius 33.1413 
rwrist -75.7969 
rhand 0.877289 0.307318 
rfingers 7.12502 
rthumb 26.4304 -27.87 
lclavicle -7.15625e-14 6.83819e-14 
lhumerus -49.1698 33.0988 40.6429 
lradius 39.5346 
lwrist -3.20895 
lhand -8.84816 34.8083 
lfingers 7.12502 
lthumb 17.0926 64.0764 
rfemur -12.71 -5.21672 7.94489 
rtibia 24.4365 
rfoot -13.1715 -16.4872 
rtoes -28.1933 
lfemur -43.4337 18.0079 -1.49139 
ltibia 71.9918 
lfoot -35.6991 -5.8334 
ltoes -17.5877 
1996
root 11.3062 15.9907 12.2729 -308.416 -67.7431 321.523 
lowerback 19.4195 -1.70926 -3.57742 
upperback 6.19946 -2.98336 4.99622 
thorax -3.67455 -1.68735 8.10819 
lowerneck 5.22082 -19.8466 -18.187 
upperneck 6.16604 -30.138 25.751 
head 7.9563 -15.0325 7.87528 
rclavicle -7.15625e-15 9.38264e-14 
rhumerus -54.7204 -62.9889 2.69889 
rradius 33.3981 
rwrist -75.4333 
rhand 0.428264 0.38959 
rfingers 7.12502 
rthumb 26.0005 -27.8516 
lclavicle -7.15625e-15 9.38264e-14 
lhumerus -45.5876 30.8643 42.747 
lradius 39.9165 
lwrist -4.57677 
lhand -9.14753 33.7265 
lfingers 7.12502 
lthumb 16.8044 63.0193 
rfemur -13.1027 -5.86537 8.5713 
rtibia 24.5155 
rfoot -12.1987 -17.6169 
rtoes -27.3668 
lfemur -43.3821 17.8021 -1.44631 
ltibia 71.2049 
lfoot -35.7906 -5.86343 
ltoes -16.3442 
1997
root 11.3001 16.0419 12.3354 -307.624 -67.4197 320.987 
lowerback 19.186 -1.72735 -3.37255 
upperback 6.10886 -2.95501 5.08053 
thorax -3.66191 -1.66885 8.06362 
lowerneck 4.84893 -19.6332 -18.695 
upperneck 6.61268 -29.9672 25.9391 
head 8.2449 -14.9101 7.9822 
rclavicle -1.59028e-15 -4.13472e-14 
rhumerus -53.8591 -63.1623 1.48123 
rradius 33.1978 
rwrist -74.5442 
rhand -0.959361 1.08484 
rfingers 7.12502 
rthumb 24.6712 -27.3448 
lclavicle -1.59028e-15 -4.13472e-14 
lhumerus -45.0949 30.2458 43.7806 
lradius 40.7172 
lwrist -6.24528 
lhand -8.9415 33.4298 
lfingers 7.12502 
lthumb 17.0027 62.7056 
rfemur -13.5933 -6.27013 9.25355 
rtibia 24.7047 
rfoot -11.1309 -19.0511 
rtoes -25.7993 
lfemur -43.2737 17.7155 -1.32667 
ltibia 70.4653 
lfoot -35.7445 -5.97248 
ltoes -15.0391 
1998
root 11.2951 16.096 12.4013 -307.254 -67.3979 320.799 
lowerback 19.0315 -1.60568 -3.27486 
upperback 6.05103 -2.7725 4.99094 
thorax -3.68401 -1.57127 7.86128 
lowerneck 4.67573 -19.419 -19.3013 
upperneck 6.80765 -29.876 26.6316 
head 8.55502 -14.8545 8.26986 
rclavicle 1.98785e-14 2.22639e-14 
rhumerus -53.8294 -63.1789 1.14439 
rradius 33.096 
rwrist -73.6375 
rhand -4.81201 2.04017 
rfingers 7.12502 
rthumb 20.974 -26.8458 
lclavicle 1.98785e-14 2.22639e-14 
lhumerus -44.3536 29.5247 44.8285 
lradius 41.508 
lwrist -7.90171 
lhand -8.16777 33.354 
lfingers 7.12502 
lthumb 17.7474 62.5641 
rfemur -14.1133 -6.92732 9.58781 
rtibia 25.0703 
rfoot -10.01 -20.0884 
rtoes -23.0822 
lfemur -43.0259 17.5962 -1.5449 
ltibia 69.7437 
lfoot -35.6149 -5.24258 
ltoes -18.1311 
1999
root 11.2892 16.1558 12.4663 -306.749 -67.4464 320.476 
lowerback 18.9488 -1.43763 -3.30006 
upperback 6.03516 -2.55518 4.9614 
thorax -3.69269 -1.46153 7.79358 
lowerneck 3.99975 -19.4406 -19.1737 
upperneck 7.11532 -29.8736 26.5399 
head 8.73427 -14.7819 8.1483 
rclavicle -1.82882e-14 -7.95139e-15 
rhumerus -53.5423 -63.0939 0.660751 
rradius 33.0818 
rwrist -72.5681 
rhand -2.01827 -1.91774 
rfingers 7.12502 
rthumb 23.6559 -30.4823 
lclavicle -1.82882e-14 -7.95139e-15 
lhumerus -43.6909 29.3566 45.7681 
lradius 42.0536 
lwrist -8.98876 
lhand -8.77561 32.621 
lfingers 7.12502 
lthumb 17.1624 61.8831 
rfemur -14.6936 -7.87696 9.98174 
rtibia 25.5443 
rfoot -9.16756 -20.8202 
rtoes -18.327 
lfemur -42.7772 17.5463 -1.78569 
ltibia 69.0222 
lfoot -35.1835 -4.61148 
ltoes -20.5869 
